
<svg width="32" height="32" viewBox="0 0 32 32" fill="none" xmlns="http://www.w3.org/2000/svg">
<path d="M11.88 27.56C11.6266 27.56 11.3733 27.4667 11.1733 27.2667C10.7866 26.88 10.7866 26.24 11.1733 25.8534L19.8666 17.16C20.5066 16.52 20.5066 15.48 19.8666 14.84L11.1733 6.14669C10.7866 5.76003 10.7866 5.12003 11.1733 4.73336C11.56 4.34669 12.2 4.34669 12.5866 4.73336L21.28 13.4267C21.96 14.1067 22.3466 15.0267 22.3466 16C22.3466 16.9734 21.9733 17.8934 21.28 18.5734L12.5866 27.2667C12.3866 27.4534 12.1333 27.56 11.88 27.56Z" fill="#757575"/>
</svg>
