
<svg width="20" height="20" viewBox="0 0 20 20" fill="none" xmlns="http://www.w3.org/2000/svg">
<g clip-path="url(#clip0_2671_73561)">
<path d="M10.0265 1.49162e-07C10.7253 -0.000224089 11.4007 0.252385 11.9278 0.711193C12.455 1.17 12.7983 1.80403 12.8946 2.49623C12.9908 3.18844 12.8333 3.89207 12.4513 4.47725C12.0692 5.06244 11.4884 5.48965 10.8159 5.68002V9.73687C10.8159 9.94625 10.7328 10.1471 10.5847 10.2951C10.4366 10.4432 10.2358 10.5264 10.0265 10.5264C9.81707 10.5264 9.61626 10.4432 9.4682 10.2951C9.32015 10.1471 9.23697 9.94625 9.23697 9.73687V5.68002C8.56604 5.48818 7.98696 5.06053 7.60623 4.47573C7.2255 3.89091 7.06875 3.18831 7.16483 2.49712C7.26089 1.80596 7.60331 1.17272 8.12908 0.713915C8.65486 0.255107 9.32864 0.0015896 10.0265 1.49162e-07ZM11.3423 2.89475C11.3423 2.54578 11.2036 2.21111 10.9569 1.96434C10.7101 1.71758 10.3754 1.57895 10.0265 1.57895C9.67748 1.57895 9.34281 1.71758 9.09605 1.96434C8.84928 2.21111 8.71065 2.54578 8.71065 2.89475C8.71065 3.24372 8.84928 3.5784 9.09605 3.82516C9.34281 4.07192 9.67748 4.21053 10.0265 4.21053C10.3754 4.21053 10.7101 4.07192 10.9569 3.82516C11.2036 3.5784 11.3423 3.24372 11.3423 2.89475ZM19.5002 4.73685C19.5002 4.03891 19.2229 3.36956 18.7294 2.87604C18.2359 2.38253 17.5665 2.10527 16.8685 2.10527C16.1706 2.10527 15.5013 2.38253 15.0078 2.87604C14.5142 3.36956 14.237 4.03891 14.237 4.73685V8.42108H11.8686V10H15.8159V4.73685C15.8159 4.45767 15.9269 4.18994 16.1242 3.99253C16.3217 3.79512 16.5894 3.68422 16.8685 3.68422C17.1478 3.68422 17.4154 3.79512 17.613 3.99253C17.8103 4.18994 17.9213 4.45767 17.9213 4.73685V17.3685C17.9213 17.6476 17.8103 17.9154 17.613 18.1128C17.4154 18.3101 17.1478 18.4211 16.8685 18.4211C16.5894 18.4211 16.3217 18.3101 16.1242 18.1128C15.9269 17.9154 15.8159 17.6476 15.8159 17.3685V12.1053H11.0791V17.3685C11.0791 17.6476 10.9682 17.9154 10.7708 18.1128C10.5734 18.3101 10.3056 18.4211 10.0265 18.4211C9.74728 18.4211 9.47953 18.3101 9.28213 18.1128C9.08472 17.9154 8.97382 17.6476 8.97382 17.3685V12.1053H2.658C2.51841 12.1053 2.38455 12.0499 2.28583 11.9512C2.18714 11.8524 2.13169 11.7186 2.13169 11.579V4.73685C2.13169 4.45767 2.24258 4.18994 2.44 3.99253C2.63741 3.79512 2.90514 3.68422 3.18432 3.68422C3.4635 3.68422 3.73125 3.79512 3.92864 3.99253C4.12605 4.18994 4.23695 4.45767 4.23695 4.73685V10H8.18434V8.42108H5.8159V4.73685C5.8159 4.03891 5.53866 3.36956 5.04513 2.87604C4.55161 2.38253 3.88226 2.10527 3.18432 2.10527C2.48638 2.10527 1.81703 2.38253 1.32351 2.87604C0.829988 3.36956 0.552734 4.03891 0.552734 4.73685V11.579C0.552734 12.1373 0.774539 12.6728 1.16935 13.0676C1.56417 13.4625 2.09965 13.6842 2.658 13.6842H7.39487V17.3685C7.39487 18.0664 7.67212 18.7357 8.16564 19.2293C8.65916 19.7228 9.32851 20 10.0265 20C10.7244 20 11.3937 19.7228 11.8873 19.2293C12.3808 18.7357 12.658 18.0664 12.658 17.3685V13.6842H14.237V17.3685C14.237 18.0664 14.5142 18.7357 15.0078 19.2293C15.5013 19.7228 16.1706 20 16.8685 20C17.5665 20 18.2359 19.7228 18.7294 19.2293C19.2229 18.7357 19.5002 18.0664 19.5002 17.3685V4.73685Z" fill="#727272"/>
</g>
<defs>
<clipPath id="clip0_2671_73561">
<rect width="18.9475" height="20" fill="white" transform="translate(0.552734)"/>
</clipPath>
</defs>
</svg>
