
<svg width="25" height="25" viewBox="0 0 25 25" fill="none" xmlns="http://www.w3.org/2000/svg">
<path d="M17.616 23.25C16.486 23.25 15.296 22.98 14.066 22.46C12.866 21.95 11.656 21.25 10.476 20.4C9.30602 19.54 8.17602 18.58 7.10602 17.53C6.04602 16.46 5.08602 15.33 4.23602 14.17C3.37602 12.97 2.68602 11.77 2.19602 10.61C1.67602 9.37 1.41602 8.17 1.41602 7.04C1.41602 6.26 1.55602 5.52 1.82602 4.83C2.10602 4.12 2.55602 3.46 3.16602 2.89C3.93602 2.13 4.81602 1.75 5.75602 1.75C6.14602 1.75 6.54602 1.84 6.88602 2C7.27602 2.18 7.60602 2.45 7.84602 2.81L10.166 6.08C10.376 6.37 10.536 6.65 10.646 6.93C10.776 7.23 10.846 7.53 10.846 7.82C10.846 8.2 10.736 8.57 10.526 8.92C10.376 9.19 10.146 9.48 9.85602 9.77L9.17602 10.48C9.18602 10.51 9.19602 10.53 9.20602 10.55C9.32602 10.76 9.56602 11.12 10.026 11.66C10.516 12.22 10.976 12.73 11.436 13.2C12.026 13.78 12.516 14.24 12.976 14.62C13.546 15.1 13.916 15.34 14.136 15.45L14.116 15.5L14.846 14.78C15.156 14.47 15.456 14.24 15.746 14.09C16.296 13.75 16.996 13.69 17.696 13.98C17.956 14.09 18.236 14.24 18.536 14.45L21.856 16.81C22.226 17.06 22.496 17.38 22.656 17.76C22.806 18.14 22.876 18.49 22.876 18.84C22.876 19.32 22.766 19.8 22.556 20.25C22.346 20.7 22.086 21.09 21.756 21.45C21.186 22.08 20.566 22.53 19.846 22.82C19.156 23.1 18.406 23.25 17.616 23.25ZM5.75602 3.25C5.20602 3.25 4.69602 3.49 4.20602 3.97C3.74602 4.4 3.42602 4.87 3.22602 5.38C3.01602 5.9 2.91602 6.45 2.91602 7.04C2.91602 7.97 3.13602 8.98 3.57602 10.02C4.02602 11.08 4.65602 12.18 5.45602 13.28C6.25602 14.38 7.16602 15.45 8.16602 16.46C9.16602 17.45 10.246 18.37 11.356 19.18C12.436 19.97 13.546 20.61 14.646 21.07C16.356 21.8 17.956 21.97 19.276 21.42C19.786 21.21 20.236 20.89 20.646 20.43C20.876 20.18 21.056 19.91 21.206 19.59C21.326 19.34 21.386 19.08 21.386 18.82C21.386 18.66 21.356 18.5 21.276 18.32C21.246 18.26 21.186 18.15 20.996 18.02L17.676 15.66C17.476 15.52 17.296 15.42 17.126 15.35C16.906 15.26 16.816 15.17 16.476 15.38C16.276 15.48 16.096 15.63 15.896 15.83L15.136 16.58C14.746 16.96 14.146 17.05 13.686 16.88L13.416 16.76C13.006 16.54 12.526 16.2 11.996 15.75C11.516 15.34 10.996 14.86 10.366 14.24C9.87602 13.74 9.38602 13.21 8.87602 12.62C8.40602 12.07 8.06602 11.6 7.85602 11.21L7.73602 10.91C7.67602 10.68 7.65602 10.55 7.65602 10.41C7.65602 10.05 7.78602 9.73 8.03602 9.48L8.78602 8.7C8.98602 8.5 9.13602 8.31 9.23602 8.14C9.31602 8.01 9.34602 7.9 9.34602 7.8C9.34602 7.72 9.31602 7.6 9.26602 7.48C9.19602 7.32 9.08602 7.14 8.94602 6.95L6.62602 3.67C6.52602 3.53 6.40602 3.43 6.25602 3.36C6.09602 3.29 5.92602 3.25 5.75602 3.25ZM14.116 15.51L13.956 16.19L14.226 15.49C14.176 15.48 14.136 15.49 14.116 15.51Z" fill="white"/>
<path d="M18.666 10.25C18.256 10.25 17.916 9.91 17.916 9.5C17.916 9.14 17.556 8.39 16.956 7.75C16.366 7.12 15.716 6.75 15.166 6.75C14.756 6.75 14.416 6.41 14.416 6C14.416 5.59 14.756 5.25 15.166 5.25C16.136 5.25 17.156 5.77 18.046 6.72C18.876 7.61 19.416 8.7 19.416 9.5C19.416 9.91 19.076 10.25 18.666 10.25Z" fill="white"/>
<path d="M22.166 10.25C21.756 10.25 21.416 9.91 21.416 9.5C21.416 6.05 18.616 3.25 15.166 3.25C14.756 3.25 14.416 2.91 14.416 2.5C14.416 2.09 14.756 1.75 15.166 1.75C19.436 1.75 22.916 5.23 22.916 9.5C22.916 9.91 22.576 10.25 22.166 10.25Z" fill="white"/>
</svg>
