
<svg width="48" height="49" viewBox="0 0 48 49" fill="none" xmlns="http://www.w3.org/2000/svg">
<path d="M38 26.7207H4C3.45614 26.7207 3 26.2646 3 25.7207C3 25.1768 3.45614 24.7207 4 24.7207H38C38.5439 24.7207 39 25.1768 39 25.7207C39 26.2646 38.5439 26.7207 38 26.7207Z" fill="#494949" stroke="#494949"/>
<path d="M10.0383 14.6401L10.0383 14.64L10.0294 14.6406C8.25563 14.7496 6.89832 14.9908 6.05267 16.0104C5.63382 16.5155 5.37506 17.1699 5.21805 17.9871C5.06137 18.8027 5 19.8133 5 21.0596V35.0396C5 36.3256 5.05202 37.3794 5.2226 38.2293C5.39433 39.0849 5.69432 39.7761 6.22157 40.2957C6.74804 40.8146 7.44785 41.1097 8.31514 41.2791C9.17771 41.4476 10.2491 41.4996 11.5601 41.4996H30.4399C31.7357 41.4996 32.7942 41.45 33.6474 41.2901C34.5042 41.1295 35.1977 40.85 35.7242 40.3571C36.2534 39.8616 36.5606 39.2006 36.7416 38.3823C36.9211 37.5712 36.9849 36.5671 37 35.3458H37V35.3396V21.0596C37 19.7737 36.948 18.7198 36.7774 17.87C36.6057 17.0143 36.3057 16.3231 35.7784 15.8035C35.252 15.2847 34.5522 14.9895 33.6849 14.8201C32.8223 14.6517 31.7509 14.5996 30.4399 14.5996H11.5601C11.0084 14.5996 10.499 14.6201 10.0383 14.6401ZM30.4399 43.4996H11.5601C8.1526 43.4996 6.06685 42.9509 4.80918 41.7067C3.55314 40.464 3 38.4053 3 35.0396V21.0596C3 18.3806 3.31034 16.3823 4.29193 15.0077C5.24826 13.6684 6.92502 12.8152 9.94418 12.6391C10.4629 12.6191 10.9926 12.5996 11.5601 12.5996H30.4399C33.8474 12.5996 35.9332 13.1483 37.1908 14.3926C38.4469 15.6352 39 17.694 39 21.0596V35.3566C38.96 38.5972 38.3902 40.5753 37.1374 41.7703C35.8788 42.9707 33.8085 43.4996 30.4399 43.4996Z" fill="#494949" stroke="#494949"/>
<path d="M37.3335 36.1064L37.3274 36.1004L37.3211 36.0945C37.12 35.9068 37 35.6381 37 35.36V21.06C37 19.7741 36.948 18.7202 36.7774 17.8704C36.6057 17.0147 36.3057 16.3235 35.7784 15.8039C35.252 15.285 34.5522 14.9899 33.6849 14.8205C32.8223 14.6521 31.7509 14.6 30.4399 14.6H11.5601C11.0084 14.6 10.499 14.6204 10.0383 14.6405L10.0383 14.6405L10.0351 14.6406C9.78325 14.6532 9.51218 14.5515 9.30112 14.3545C9.11242 14.1784 9.00071 13.9165 9 13.6228C9.04001 10.3927 9.60968 8.41966 10.8623 7.22713C12.1209 6.02889 14.1916 5.5 17.5601 5.5H36.4399C39.8474 5.5 41.9332 6.04869 43.1908 7.29294C44.4469 8.53559 45 10.5943 45 13.96V27.94C45 30.6191 44.6897 32.6173 43.7081 33.9919C42.7528 35.3298 41.0785 36.1826 38.0654 36.36H38.0653H38.0652H38.065H38.0649H38.0647H38.0645H38.0644H38.0642H38.0641H38.0639H38.0638H38.0636H38.0634H38.0633H38.0631H38.063H38.0628H38.0626H38.0625H38.0623H38.0622H38.062H38.0618H38.0617H38.0615H38.0614H38.0612H38.061H38.0609H38.0607H38.0605H38.0604H38.0602H38.0601H38.0599H38.0597H38.0596H38.0594H38.0592H38.0591H38.0589H38.0587H38.0586H38.0584H38.0582H38.0581H38.0579H38.0577H38.0576H38.0574H38.0572H38.0571H38.0569H38.0567H38.0566H38.0564H38.0562H38.0561H38.0559H38.0557H38.0556H38.0554H38.0552H38.0551H38.0549H38.0547H38.0546H38.0544H38.0542H38.054H38.0539H38.0537H38.0535H38.0534H38.0532H38.053H38.0529H38.0527H38.0525H38.0523H38.0522H38.052H38.0518H38.0517H38.0515H38.0513H38.0511H38.051H38.0508H38.0506H38.0505H38.0503H38.0501H38.0499H38.0498H38.0496H38.0494H38.0492H38.0491H38.0489H38.0487H38.0485H38.0484H38.0482H38.048H38.0479H38.0477H38.0475H38.0473H38.0472H38.047H38.0468H38.0466H38.0465H38.0463H38.0461H38.0459H38.0458H38.0456H38.0454H38.0452H38.0451H38.0449H38.0447H38.0445H38.0444H38.0442H38.044H38.0438H38.0437H38.0435H38.0433H38.0431H38.043H38.0428H38.0426H38.0424H38.0423H38.0421H38.0419H38.0417H38.0416H38.0414H38.0412H38.041H38.0409H38.0407H38.0405H38.0403H38.0402H38.04H38.0398H38.0396H38.0395H38.0393H38.0391H38.0389H38.0387H38.0386H38.0384H38.0382H38.038H38.0379H38.0377H38.0375H38.0373H38.0372H38.037H38.0368H38.0366H38.0365H38.0363H38.0361H38.0359H38.0358H38.0356H38.0354H38.0352H38.0351H38.0349H38.0347H38.0345H38.0344H38.0342H38.034H38.0338H38.0337H38.0335H38.0333H38.0331H38.033H38.0328H38.0326H38.0324H38.0323H38.0321H38.0319H38.0318H38.0316H38.0314H38.0312H38.0311H38.0309H38.0307H38.0305H38.0304H38.0302H38.03H38.0298H38.0297H38.0295H38.0293H38.0292H38.029H38.0288H38.0286H38.0285H38.0283H38.0281H38.028H38.0278H38.0276H38.0274H38.0273H38.0271H38.0269H38.0268H38.0266H38.0264H38.0262H38.0261H38.0259H38.0257H38.0256H38.0254H38.0252H38.0251H38.0249H38.0247H38.0246H38.0244H38.0242H38.024H38.0239H38.0237H38.0235H38.0234H38.0232H38.023H38.0229H38.0227H38.0225H38.0224H38.0222H38.022H38.0219H38.0217H38.0215H38.0214H38.0212H38.0211H38.0209H38.0207H38.0206H38.0204H38.0202H38.0201H38.0199H38.0197H38.0196H38.0194H38.0193H38.0191H38.0189H38.0188H38.0186H38.0184H38.0183H38.0181H38.018H38.0178H38.0176H38.0175H38.0173H38.0172H38.017H38.0168H38.0167H38.0165H38.0164H38.0162H38.016H38.0159H38.0157H38.0156H38.0154H38.0153H38.0151H38.0149H38.0148H38.0146H38.0145H38.0143H38.0142H38.014H38.0139H38.0137H38.0136H38.0134H38.0132H38.0131H38.0129H38.0128H38.0126H38.0125H38.0123H38.0122H38.012H38.0119H38.0117H38.0116H38.0114H38.0113H38.0111H38.011H38.0108H38.0107H38.0105H38.0104H38.0102H38.0101H38.0099H38.0098H38.0097H38.0095H38.0094H38.0092H38.0091H38.0089H38.0088H38.0086H38.0085H38.0084H38.0082H38.0081H38.0079H38.0078H38.0076H38.0075H38.0074H38.0072H38.0071H38.0069H38.0068H38.0067H38.0065H38.0064H38.0063H38.0061H38.006H38.0058H38.0057H38.0056H38.0054H38.0053H38.0052H38.005H38.0049H38.0048H38.0046H38.0045H38.0044H38.0042H38.0041H38.004H38.0038H38.0037H38.0036H38.0035H38.0033H38.0032H38.0031H38.0029H38.0028H38.0027H38.0026H38.0024H38.0023H38.0022H38.0021H38.0019H38.0018H38.0017H38.0016H38.0014H38.0013H38.0012H38.0011H38.001H38.0008H38.0007H38.0006H38.0005H38.0004H38.0002H38.0001H38C37.7344 36.36 37.4876 36.2605 37.3335 36.1064ZM11.0614 12.0627L11.0213 12.6H11.5601H30.4399C33.8474 12.6 35.9332 13.1487 37.1908 14.3929C38.4469 15.6356 39 17.6943 39 21.06V33.7V34.2986L39.5891 34.192C40.831 33.9672 41.7528 33.5063 42.312 32.4487C42.836 31.4578 43 30.0076 43 27.94V13.96C43 12.6741 42.948 11.6202 42.7774 10.7704C42.6057 9.91474 42.3057 9.22347 41.7784 8.70387C41.252 8.18504 40.5522 7.88991 39.6849 7.72052C38.8223 7.55206 37.7509 7.5 36.4399 7.5H17.5601C16.4134 7.5 15.455 7.53864 14.6618 7.6567C13.869 7.77468 13.2062 7.97664 12.6729 8.32719C11.5662 9.05474 11.1933 10.2978 11.0614 12.0627Z" fill="#494949" stroke="#494949"/>
<path d="M13.9205 37.1191H10.4805C9.93661 37.1191 9.48047 36.663 9.48047 36.1191C9.48047 35.5753 9.93661 35.1191 10.4805 35.1191H13.9205C14.4644 35.1191 14.9205 35.5753 14.9205 36.1191C14.9205 36.6674 14.4801 37.1191 13.9205 37.1191Z" fill="#494949" stroke="#494949"/>
<path d="M25.0997 37.1191H18.2197C17.6759 37.1191 17.2197 36.663 17.2197 36.1191C17.2197 35.5753 17.6759 35.1191 18.2197 35.1191H25.0997C25.6436 35.1191 26.0997 35.5753 26.0997 36.1191C26.0997 36.6674 25.6593 37.1191 25.0997 37.1191Z" fill="#494949" stroke="#494949"/>
</svg>
