
<svg width="25" height="25" viewBox="0 0 25 25" fill="none" xmlns="http://www.w3.org/2000/svg">
<path d="M12.5 23.25C6.57 23.25 1.75 18.43 1.75 12.5C1.75 6.57 6.57 1.75 12.5 1.75C18.43 1.75 23.25 6.57 23.25 12.5C23.25 18.43 18.43 23.25 12.5 23.25ZM12.5 3.25C7.4 3.25 3.25 7.4 3.25 12.5C3.25 17.6 7.4 21.75 12.5 21.75C17.6 21.75 21.75 17.6 21.75 12.5C21.75 7.4 17.6 3.25 12.5 3.25Z" fill="#9A9A9A"/>
<path d="M9.49011 16.1209C7.49011 16.1209 5.87012 14.5009 5.87012 12.5009C5.87012 10.5009 7.49011 8.88086 9.49011 8.88086C10.3701 8.88086 11.2101 9.20088 11.8801 9.78088C12.1901 10.0509 12.2201 10.5309 11.9501 10.8409C11.6801 11.1509 11.2001 11.1808 10.8901 10.9108C10.5001 10.5708 10.0101 10.3809 9.49011 10.3809C8.32011 10.3809 7.37012 11.3309 7.37012 12.5009C7.37012 13.6709 8.32011 14.6209 9.49011 14.6209C10.0001 14.6209 10.5001 14.4309 10.8901 14.0909C11.2001 13.8209 11.6701 13.8508 11.9501 14.1608C12.2201 14.4708 12.1901 14.9508 11.8801 15.2208C11.2101 15.8008 10.3601 16.1209 9.49011 16.1209Z" fill="#9A9A9A"/>
<path d="M16.4901 16.1209C14.4901 16.1209 12.8701 14.5009 12.8701 12.5009C12.8701 10.5009 14.4901 8.88086 16.4901 8.88086C17.3701 8.88086 18.2101 9.20088 18.8801 9.78088C19.1901 10.0509 19.2201 10.5309 18.9501 10.8409C18.6801 11.1509 18.2001 11.1808 17.8901 10.9108C17.5001 10.5708 17.0101 10.3809 16.4901 10.3809C15.3201 10.3809 14.3701 11.3309 14.3701 12.5009C14.3701 13.6709 15.3201 14.6209 16.4901 14.6209C17.0001 14.6209 17.5001 14.4309 17.8901 14.0909C18.2001 13.8209 18.6701 13.8508 18.9501 14.1608C19.2201 14.4708 19.1901 14.9508 18.8801 15.2208C18.2101 15.8008 17.3601 16.1209 16.4901 16.1209Z" fill="#9A9A9A"/>
</svg>
