
<svg width="20" height="20" viewBox="0 0 20 20" fill="none" xmlns="http://www.w3.org/2000/svg">
<path d="M10.0003 18.4577C5.3348 18.4577 1.54199 14.6649 1.54199 9.99935C1.54199 5.33383 5.3348 1.54102 10.0003 1.54102C14.6659 1.54102 18.4587 5.33383 18.4587 9.99935C18.4587 14.6649 14.6659 18.4577 10.0003 18.4577ZM10.0003 1.79102C5.47418 1.79102 1.79199 5.47321 1.79199 9.99935C1.79199 14.5255 5.47418 18.2077 10.0003 18.2077C14.5265 18.2077 18.2087 14.5255 18.2087 9.99935C18.2087 5.47321 14.5265 1.79102 10.0003 1.79102Z" fill="#727272" stroke="#727272"/>
<path d="M13.0525 12.7668L13.0422 12.7599L13.0314 12.7535L10.4483 11.2119C10.4482 11.2119 10.4482 11.2118 10.4481 11.2118C9.95793 10.9188 9.5752 10.2405 9.5752 9.67448V6.25781C9.5752 6.22767 9.58748 6.19638 9.61312 6.17074C9.63877 6.1451 9.67005 6.13281 9.7002 6.13281C9.73034 6.13281 9.76162 6.1451 9.78727 6.17074C9.81291 6.19638 9.8252 6.22767 9.8252 6.25781V9.67448C9.8252 9.94284 9.92923 10.2152 10.0479 10.4238C10.1656 10.6308 10.3463 10.8604 10.5795 10.9968L13.1606 12.5372L13.1606 12.5372L13.1649 12.5397C13.2136 12.5681 13.2424 12.637 13.2052 12.7077C13.1715 12.7571 13.1256 12.7745 13.0919 12.7745C13.0762 12.7745 13.0671 12.7727 13.0628 12.7715C13.0591 12.7705 13.0563 12.7693 13.0525 12.7668Z" fill="#727272" stroke="#727272"/>
</svg>