
<svg width="18" height="19" viewBox="0 0 18 19" fill="none" xmlns="http://www.w3.org/2000/svg">
<path d="M9.00043 12.747C7.20793 12.747 5.75293 11.292 5.75293 9.49945C5.75293 7.70695 7.20793 6.25195 9.00043 6.25195C10.7929 6.25195 12.2479 7.70695 12.2479 9.49945C12.2479 11.292 10.7929 12.747 9.00043 12.747ZM9.00043 7.37695C7.83043 7.37695 6.87793 8.32945 6.87793 9.49945C6.87793 10.6695 7.83043 11.622 9.00043 11.622C10.1704 11.622 11.1229 10.6695 11.1229 9.49945C11.1229 8.32945 10.1704 7.37695 9.00043 7.37695Z" fill="#757575"/>
<path d="M8.99957 16.2644C6.17957 16.2644 3.51707 14.6144 1.68707 11.7494C0.89207 10.5119 0.89207 8.49437 1.68707 7.24937C3.52457 4.38438 6.18707 2.73438 8.99957 2.73438C11.8121 2.73438 14.4746 4.38438 16.3046 7.24937C17.0996 8.48688 17.0996 10.5044 16.3046 11.7494C14.4746 14.6144 11.8121 16.2644 8.99957 16.2644ZM8.99957 3.85938C6.57707 3.85938 4.25957 5.31438 2.63957 7.85688C2.07707 8.73438 2.07707 10.2644 2.63957 11.1419C4.25957 13.6844 6.57707 15.1394 8.99957 15.1394C11.4221 15.1394 13.7396 13.6844 15.3596 11.1419C15.9221 10.2644 15.9221 8.73438 15.3596 7.85688C13.7396 5.31438 11.4221 3.85938 8.99957 3.85938Z" fill="#757575"/>
</svg>
