
<svg width="48" height="48" viewBox="0 0 48 48" fill="none" xmlns="http://www.w3.org/2000/svg">
<path d="M7.48875 44.3646L7.48698 44.3643C5.63222 44.1146 3.92405 42.4313 3.63517 40.5285C3.635 40.5274 3.63484 40.5263 3.63467 40.5252L3.03566 36.152L3.03525 36.1491C2.94846 35.5416 3.03356 34.8156 3.26508 34.114C3.49623 33.4137 3.86077 32.7759 4.29558 32.3316C4.29616 32.3311 4.29673 32.3305 4.29731 32.3299L13.0738 23.5534L13.274 23.3532L13.2053 23.0786C11.8277 17.5679 13.4189 11.7495 17.4721 7.7351L17.4733 7.73395C23.7584 1.46819 33.9825 1.44887 40.287 7.73364C43.3324 10.7792 45.0003 14.8317 45.0003 19.1398C45.0003 23.4478 43.3326 27.5001 40.2874 30.5456C36.2105 34.583 30.4109 36.1712 24.944 34.7754L24.6684 34.705L24.4671 34.9059L15.6671 43.6859L15.667 43.6858L15.6586 43.6946C14.9264 44.4616 13.5645 44.9998 12.3603 44.9998C12.1908 44.9998 11.9957 44.9828 11.8221 44.9636L7.48875 44.3646ZM4.98446 35.8445L4.9849 35.8477L5.5849 40.2277L5.5848 40.2277L5.58639 40.2378C5.66706 40.7487 5.96834 41.2438 6.33259 41.6167C6.69512 41.9879 7.18641 42.3056 7.71368 42.3754C7.71414 42.3755 7.71459 42.3755 7.71505 42.3756L12.0658 42.9743C12.4173 43.0308 12.8419 42.9558 13.1942 42.8439C13.5485 42.7313 13.9416 42.5457 14.1938 42.2934L23.6335 32.8738L23.6338 32.8734C23.8935 32.6137 24.2767 32.5286 24.6318 32.6373C29.6308 34.213 35.0837 32.8635 38.8138 29.1334C41.4682 26.479 42.9403 22.9116 42.9403 19.1398C42.9403 15.3484 41.4684 11.8016 38.8152 9.14771C36.116 6.40768 32.4858 5.01985 28.8603 5.01985C25.2343 5.01985 21.6254 6.38791 18.8673 9.14573C15.1356 12.857 13.7887 18.2889 15.3415 23.3441C15.4487 23.7087 15.3558 24.0773 15.0867 24.3463L5.68672 33.7463C5.43499 33.998 5.24956 34.3904 5.13519 34.739C5.0205 35.0885 4.94041 35.5067 4.98446 35.8445Z" fill="#494949" stroke="#494949"/>
<path d="M18.3802 40.5794C18.1256 40.5794 17.875 40.4871 17.6737 40.2858L13.0737 35.6858C12.689 35.3011 12.689 34.6577 13.0737 34.2729C13.4584 33.8882 14.1019 33.8882 14.4866 34.2729L19.0866 38.8729C19.4713 39.2577 19.4713 39.9011 19.0866 40.2858C18.8853 40.4871 18.6347 40.5794 18.3802 40.5794Z" fill="#494949" stroke="#494949"/>
<path d="M29 23C26.7961 23 25 21.2039 25 19C25 16.7961 26.7961 15 29 15C31.2039 15 33 16.7961 33 19C33 21.2039 31.2039 23 29 23ZM29 17C27.9039 17 27 17.9039 27 19C27 20.0961 27.9039 21 29 21C30.0961 21 31 20.0961 31 19C31 17.9039 30.0961 17 29 17Z" fill="#494949" stroke="#494949"/>
</svg>
