
<svg width="24" height="24" viewBox="0 0 24 24" fill="none" xmlns="http://www.w3.org/2000/svg">
<path d="M11.9999 13.6695C10.1452 13.6695 8.62988 12.1625 8.62988 10.2995C8.62988 8.43812 10.1435 6.93945 11.9999 6.93945C13.8546 6.93945 15.3699 8.44644 15.3699 10.3095C15.3699 12.1708 13.8563 13.6695 11.9999 13.6695ZM11.9999 7.43945C10.4251 7.43945 9.12988 8.72194 9.12988 10.3095C9.12988 11.8956 10.4137 13.1795 11.9999 13.1795C13.586 13.1795 14.8699 11.8956 14.8699 10.3095C14.8699 8.72194 13.5747 7.43945 11.9999 7.43945Z" fill="#868686" stroke="#868686"/>
<path d="M3.37765 8.44124L3.37777 8.44068C4.42382 3.83243 8.44333 1.75 12.0002 1.75H12.0002H12.0002H12.0002H12.0002H12.0002H12.0002H12.0002H12.0002H12.0002H12.0003H12.0003H12.0003H12.0003H12.0003H12.0003H12.0003H12.0003H12.0003H12.0003H12.0003H12.0004H12.0004H12.0004H12.0004H12.0004H12.0004H12.0004H12.0004H12.0004H12.0004H12.0004H12.0005H12.0005H12.0005H12.0005H12.0005H12.0005H12.0005H12.0005H12.0005H12.0006H12.0006H12.0006H12.0006H12.0006H12.0006H12.0006H12.0006H12.0006H12.0007H12.0007H12.0007H12.0007H12.0007H12.0007H12.0007H12.0007H12.0007H12.0007H12.0007H12.0007H12.0008H12.0008H12.0008H12.0008H12.0008H12.0008H12.0008H12.0008H12.0008H12.0008H12.0008H12.0009H12.0009H12.0009H12.0009H12.0009H12.0009H12.0009H12.0009H12.0009H12.0009H12.001H12.001H12.001H12.001H12.001H12.001H12.001H12.001H12.001H12.0011H12.0011H12.0011H12.0011H12.0011H12.0011H12.0011H12.0011H12.0012H12.0012H12.0012H12.0012H12.0012H12.0012H12.0012H12.0012H12.0013H12.0013H12.0013H12.0013H12.0013H12.0013H12.0013H12.0014H12.0014H12.0014H12.0014H12.0014H12.0014H12.0014H12.0015H12.0015H12.0015H12.0015H12.0015H12.0015H12.0015H12.0016H12.0016H12.0016H12.0016H12.0016H12.0016H12.0017H12.0017H12.0017H12.0017H12.0017H12.0017H12.0018H12.0018H12.0018H12.0018H12.0018H12.0018H12.0019H12.0019H12.0019H12.0019H12.0019H12.002H12.002H12.002H12.002H12.002H12.0021H12.0021H12.0021H12.0021H12.0021H12.0021H12.0022H12.0022H12.0022H12.0022H12.0022H12.0023H12.0023H12.0023H12.0023H12.0024H12.0024H12.0024H12.0024H12.0024H12.0025H12.0025H12.0025H12.0025H12.0026H12.0026H12.0026H12.0026H12.0026H12.0027H12.0027H12.0027H12.0027H12.0028H12.0028H12.0028H12.0028H12.0029H12.0029H12.0029H12.0029H12.003H12.003H12.003H12.003H12.0031H12.0031H12.0031H12.0031H12.0032H12.0032H12.0032H12.0032H12.0033H12.0033H12.0033H12.0033H12.0034H12.0034H12.0034H12.0035H12.0035H12.0035H12.0035H12.0036H12.0036H12.0036H12.0037H12.0037H12.0037H12.0037H12.0038H12.0038H12.0038H12.0039H12.0039H12.0039H12.004H12.004H12.004H12.004H12.0041H12.0041H12.0041H12.0042H12.0042H12.0042H12.0043H12.0043H12.0043H12.0044H12.0044H12.0044H12.0045H12.0045H12.0045H12.0046H12.0046H12.0046H12.0047H12.0047H12.0047H12.0048H12.0048H12.0048H12.0049H12.0049H12.0049H12.005H12.005H12.0051H12.0051H12.0051H12.0052H12.0052H12.0052H12.0053H12.0053H12.0053H12.0054H12.0054H12.0055H12.0055H12.0055H12.0056H12.0056H12.0057H12.0057H12.0057H12.0058H12.0058H12.0059H12.0059H12.0059H12.006H12.006H12.0061H12.0061H12.0061H12.0062H12.0062H12.0063H12.0063H12.0064H12.0064H12.0064H12.0065H12.0065H12.0066H12.0066H12.0067H12.0067H12.0067H12.0068H12.0068H12.0069H12.0069H12.007H12.007H12.0071H12.0071H12.0071H12.0072H12.0072H12.0073H12.0073H12.0074H12.0074H12.0075H12.0075H12.0076H12.0076H12.0077H12.0077H12.0078H12.0078H12.0079H12.0079H12.008H12.008H12.0081H12.0081H12.0082H12.0082H12.0083H12.0083H12.0084H12.0084H12.0085H12.0085H12.0086H12.0086H12.0087H12.0087H12.0088H12.0088H12.0089H12.0089H12.009H12.0091H12.0091H12.0092H12.0092H12.0093H12.0093H12.0094H12.0094H12.0095H12.0095H12.0096H12.0097H12.0097H12.0098H12.0098H12.0099H12.0099H12.01H12.0101H12.0101H12.0102C15.5667 1.75 19.5863 3.83212 20.6325 8.45047C21.7913 13.5701 18.7045 17.9174 15.7841 20.7291C14.7193 21.7479 13.3541 22.26 12.0002 22.26C10.6463 22.26 9.28109 21.7479 8.21624 20.7291C5.29609 17.9176 2.2094 13.5606 3.37765 8.44124ZM20.148 8.55022L20.1475 8.54822C19.0787 3.88795 15.0589 2.25 12.0002 2.25C8.94112 2.25 4.9312 3.88835 3.87271 8.54874C2.72993 13.5337 5.86996 17.7675 8.5734 20.3602C10.4972 22.2168 13.5139 22.2166 15.4374 20.3597C18.1307 17.7672 21.2696 13.5341 20.148 8.55022Z" fill="#868686" stroke="#868686"/>
</svg>
