
<svg width="152" height="59" viewBox="0 0 152 59" fill="none" xmlns="http://www.w3.org/2000/svg">
<path d="M135.798 27.1455C135.351 23.6589 133.374 20.5137 130.301 18.4019C127.229 16.29 123.312 15.3844 119.414 15.8844C115.516 16.3844 111.956 18.2489 109.515 21.0678C107.075 23.8868 105.956 27.4292 106.403 30.9158L116.114 29.6703C115.962 28.4873 116.342 27.2854 117.17 26.329C117.998 25.3726 119.206 24.74 120.528 24.5703C121.851 24.4007 123.18 24.7079 124.222 25.4245C125.265 26.141 125.936 27.2081 126.087 28.3911L135.798 27.1455Z" fill="white"/>
<path d="M136.002 30.026C136.445 33.5131 135.322 37.0542 132.878 39.8703C130.435 42.6864 126.872 44.5468 122.973 45.0422C119.075 45.5376 115.16 44.6275 112.09 42.512C109.019 40.3966 107.046 37.2491 106.603 33.7619L116.315 32.5277C116.465 33.7109 117.135 34.7788 118.177 35.4965C119.218 36.2143 120.547 36.523 121.869 36.355C123.192 36.1869 124.401 35.5557 125.23 34.6002C126.059 33.6448 126.44 32.4433 126.29 31.2602L136.002 30.026Z" fill="#FDB713"/>
<circle cx="121.217" cy="30.5" r="3.5" fill="white"/>
<circle cx="121.717" cy="30" r="25" stroke="white" stroke-width="8"/>
<path d="M150.508 20.6623C152.544 28.4431 152.426 32.8099 150.483 40.5862L140.739 37.0583C141.31 32.0506 141.271 29.3697 140.754 24.7524L150.508 20.6623Z" fill="#FDB713"/>
<path d="M95.6256 13.3182C100.549 6.95884 104.081 4.38828 111.428 1.18409L114.577 11.0576C110.26 13.6599 108.16 15.3264 104.816 18.5522L95.6256 13.3182Z" fill="#FDB713"/>
<path d="M22.6973 27.6133C22.5801 28.2305 22.4824 28.793 22.4043 29.3008C22.334 29.8086 22.2988 30.25 22.2988 30.625C22.2988 31.0156 22.3574 31.3477 22.4746 31.6211C22.5918 31.8867 22.7871 32.0898 23.0605 32.2305C23.3418 32.3633 23.7285 32.4297 24.2207 32.4297H24.2441V37H24.2207C22.9707 37 21.9277 36.8047 21.0918 36.4141C20.2559 36.0234 19.4902 35.375 18.7949 34.4688C17.7324 35.4219 16.498 36.082 15.0918 36.4492C13.6934 36.8164 12.123 37 10.3809 37C8.26367 37 6.55664 36.7227 5.25977 36.168C3.9707 35.6055 3.0332 34.8086 2.44727 33.7773C1.86133 32.7461 1.56836 31.5312 1.56836 30.1328C1.56836 29.4375 1.62695 28.6992 1.74414 27.918C1.86914 27.1367 2.05273 26.3242 2.29492 25.4805L6.2793 26.5469C6.12305 27.1328 6.00586 27.6758 5.92773 28.1758C5.85742 28.6758 5.82227 29.1172 5.82227 29.5C5.82227 30.2422 5.98242 30.8281 6.30273 31.2578C6.62305 31.6797 7.16211 31.9805 7.91992 32.1602C8.68555 32.3398 9.7207 32.4297 11.0254 32.4297C12.2129 32.4297 13.2324 32.3281 14.084 32.125C14.9434 31.9141 15.666 31.5898 16.252 31.1523C16.8457 30.707 17.3223 30.1367 17.6816 29.4414C18.0488 28.7461 18.3301 27.9062 18.5254 26.9219L22.6973 27.6133ZM11.5879 26.5703L13.9902 24.168L16.3926 26.5703L13.9902 28.9727L11.5879 26.5703ZM7.48633 26.5703L9.88867 24.168L12.291 26.5703L9.88867 28.9727L7.48633 26.5703ZM30.2676 25.8906C30.5098 26.8828 30.6973 27.8242 30.8301 28.7148C30.9707 29.5977 31.041 30.4219 31.041 31.1875C31.041 32.3594 30.8223 33.3828 30.3848 34.2578C29.9473 35.125 29.2559 35.8008 28.3105 36.2852C27.373 36.7617 26.1426 37 24.6191 37H24.2559C24.0762 37 23.9355 36.8477 23.834 36.543C23.7246 36.2383 23.6699 35.625 23.6699 34.7031C23.6699 33.7734 23.7246 33.1641 23.834 32.875C23.9355 32.5781 24.0762 32.4297 24.2559 32.4297H24.6191C25.2754 32.4297 25.7598 32.2891 26.0723 32.0078C26.3926 31.7266 26.5527 31.2461 26.5527 30.5664C26.5527 30.1602 26.498 29.668 26.3887 29.0898C26.2871 28.5039 26.1465 27.832 25.9668 27.0742L30.2676 25.8906ZM24.6895 22.5508L27.0918 20.1484L29.4941 22.5508L27.0918 24.9531L24.6895 22.5508ZM37.2051 44.0938L37.6387 45.5234L32.2129 47.2578L31.7793 45.8047L37.2051 44.0938ZM33.8652 28.5742L38.1895 27.0742C38.6582 28.5117 39.0332 29.8555 39.3145 31.1055C39.5957 32.3477 39.7363 33.5078 39.7363 34.5859C39.7363 36.0312 39.4473 37.3359 38.8691 38.5C38.2988 39.6641 37.4004 40.7031 36.1738 41.6172C34.9551 42.5391 33.3691 43.3477 31.416 44.043L29.4121 39.9414C30.7871 39.4727 31.8965 38.9922 32.7402 38.5C33.584 38.0078 34.1973 37.4492 34.5801 36.8242C34.9707 36.1992 35.166 35.4531 35.166 34.5859C35.166 33.8359 35.0527 32.9414 34.8262 31.9023C34.5996 30.8555 34.2793 29.7461 33.8652 28.5742Z" fill="#FDB713"/>
<path d="M47.9863 32.3711C47.9316 31.9102 47.8652 31.5352 47.7871 31.2461C47.7168 30.9492 47.6309 30.7188 47.5293 30.5547C47.4355 30.3906 47.3262 30.2773 47.2012 30.2148C47.084 30.1445 46.9473 30.1094 46.791 30.1094C46.5879 30.1094 46.416 30.1836 46.2754 30.332C46.1348 30.4727 46.0293 30.668 45.959 30.918C45.8965 31.1602 45.8652 31.4375 45.8652 31.75C45.8652 31.9688 45.9316 32.1367 46.0645 32.2539C46.2051 32.3711 46.4785 32.4297 46.8848 32.4297C47.0723 32.4297 47.2715 32.4258 47.4824 32.418C47.6934 32.4023 47.8613 32.3867 47.9863 32.3711ZM47.3535 37C47.166 37 46.9824 37 46.8027 37C46.623 37 46.4434 37 46.2637 37C44.8652 37 43.7871 36.582 43.0293 35.7461C42.2715 34.9102 41.8926 33.7305 41.8926 32.207C41.8926 31.4727 41.9902 30.7266 42.1855 29.9688C42.3809 29.2031 42.6816 28.5 43.0879 27.8594C43.4941 27.2109 44.0098 26.6914 44.6348 26.3008C45.2676 25.9023 46.0176 25.7031 46.8848 25.7031C47.7988 25.7031 48.5723 25.8672 49.2051 26.1953C49.8379 26.5234 50.3574 26.9883 50.7637 27.5898C51.1699 28.1914 51.4824 28.9023 51.7012 29.7227C51.9199 30.543 52.0684 31.4453 52.1465 32.4297H52.8496V37H51.9473C51.541 38.6094 50.6582 39.9805 49.2988 41.1133C47.9473 42.2539 46.0723 43.2305 43.6738 44.043L41.6699 39.918C42.959 39.4805 44.1074 39.0117 45.1152 38.5117C46.1309 38.0195 46.877 37.5156 47.3535 37ZM52.8496 32.4297H62.9512V37H52.8496C52.6699 37 52.5293 36.8477 52.4277 36.543C52.3184 36.2383 52.2637 35.625 52.2637 34.7031C52.2637 33.7734 52.3184 33.1641 52.4277 32.875C52.5293 32.5781 52.6699 32.4297 52.8496 32.4297ZM62.9512 32.4297H73.0527V37H62.9512C62.7715 37 62.6309 36.8477 62.5293 36.543C62.4199 36.2383 62.3652 35.625 62.3652 34.7031C62.3652 33.7734 62.4199 33.1641 62.5293 32.875C62.6309 32.5781 62.7715 32.4297 62.9512 32.4297ZM79.0645 25.8906C79.3066 26.8828 79.4941 27.8242 79.627 28.7148C79.7676 29.5977 79.8379 30.4219 79.8379 31.1875C79.8379 32.3594 79.6191 33.3828 79.1816 34.2578C78.7441 35.125 78.0527 35.8008 77.1074 36.2852C76.1699 36.7617 74.9395 37 73.416 37H73.0527C72.873 37 72.7324 36.8477 72.6309 36.543C72.5215 36.2383 72.4668 35.625 72.4668 34.7031C72.4668 33.7734 72.5215 33.1641 72.6309 32.875C72.7324 32.5781 72.873 32.4297 73.0527 32.4297H73.416C74.0723 32.4297 74.5566 32.2891 74.8691 32.0078C75.1895 31.7266 75.3496 31.2461 75.3496 30.5664C75.3496 30.1602 75.2949 29.668 75.1855 29.0898C75.084 28.5039 74.9434 27.832 74.7637 27.0742L79.0645 25.8906ZM75.5605 23.043L77.9629 20.6406L80.3652 23.043L77.9629 25.4453L75.5605 23.043ZM71.459 23.043L73.8613 20.6406L76.2637 23.043L73.8613 25.4453L71.459 23.043ZM84.6191 12.1992C84.4004 12.1992 84.1895 12.2852 83.9863 12.457C83.791 12.6211 83.6934 12.8164 83.6934 13.043C83.6934 13.2227 83.748 13.3789 83.8574 13.5117C83.9668 13.6367 84.0996 13.7422 84.2559 13.8281C84.4199 13.9141 84.5801 13.9844 84.7363 14.0391C84.8926 13.8594 84.998 13.6797 85.0527 13.5C85.1152 13.3125 85.1465 13.1211 85.1465 12.9258C85.1465 12.7227 85.1035 12.5508 85.0176 12.4102C84.9316 12.2695 84.7988 12.1992 84.6191 12.1992ZM84.8066 10.6875C85.3613 10.6875 85.8066 10.8906 86.1426 11.2969C86.4863 11.7031 86.6582 12.2148 86.6582 12.832C86.6582 13.4492 86.4902 14.0078 86.1543 14.5078C85.8184 15 85.3809 15.4375 84.8418 15.8203C84.3105 16.1953 83.7402 16.5156 83.1309 16.7812C82.5137 17.0391 81.9277 17.2422 81.373 17.3906L80.9746 15.9727C81.2402 15.8945 81.5488 15.7891 81.9004 15.6562C82.2441 15.5156 82.5723 15.375 82.8848 15.2344C83.1973 15.0938 83.4238 14.9883 83.5645 14.918C83.3535 14.8242 83.1465 14.6953 82.9434 14.5312C82.7402 14.3594 82.5723 14.1523 82.4395 13.9102C82.3066 13.668 82.2402 13.3906 82.2402 13.0781C82.2402 12.6562 82.3652 12.2656 82.6152 11.9062C82.8652 11.5391 83.1855 11.2461 83.5762 11.0273C83.9668 10.8008 84.377 10.6875 84.8066 10.6875ZM86.0605 37H81.4902V19.3633H86.0605V37Z" fill="white"/>
</svg>
