
<svg width="25" height="25" viewBox="0 0 25 25" fill="none" xmlns="http://www.w3.org/2000/svg">
<path d="M16.483 21.9102C16.053 21.9102 15.623 21.8202 15.273 21.6502L10.023 19.0202C9.72305 18.8702 9.13305 18.8802 8.84305 19.0502L6.48305 20.4002C5.46305 20.9802 4.41305 21.0602 3.62305 20.5902C2.82305 20.1302 2.37305 19.1902 2.37305 18.0102V8.29016C2.37305 7.38016 2.97305 6.35016 3.76305 5.90016L8.09305 3.42016C8.82305 3.00016 9.93305 2.97016 10.683 3.35016L15.933 5.98016C16.233 6.13016 16.813 6.11016 17.113 5.95016L19.463 4.61016C20.483 4.03016 21.533 3.95016 22.323 4.42016C23.123 4.88016 23.573 5.82016 23.573 7.00016V16.7302C23.573 17.6402 22.973 18.6702 22.183 19.1202L17.853 21.6002C17.473 21.8002 16.973 21.9102 16.483 21.9102ZM9.47305 17.4202C9.90305 17.4202 10.333 17.5102 10.683 17.6802L15.933 20.3102C16.233 20.4602 16.813 20.4402 17.113 20.2802L21.443 17.8002C21.763 17.6202 22.073 17.0802 22.073 16.7202V6.99016C22.073 6.36016 21.893 5.89016 21.563 5.71016C21.243 5.53016 20.743 5.60016 20.203 5.91016L17.853 7.25016C17.123 7.67016 16.013 7.70016 15.263 7.32016L10.013 4.69016C9.71305 4.54016 9.13305 4.56016 8.83305 4.72016L4.50305 7.20016C4.18305 7.38016 3.87305 7.92016 3.87305 8.29016V18.0202C3.87305 18.6502 4.05305 19.1202 4.37305 19.3002C4.69305 19.4902 5.19305 19.4102 5.74305 19.1002L8.09305 17.7602C8.48305 17.5302 8.98305 17.4202 9.47305 17.4202Z" fill="white"/>
<path d="M9.39258 18.25C8.98258 18.25 8.64258 17.91 8.64258 17.5V4.5C8.64258 4.09 8.98258 3.75 9.39258 3.75C9.80258 3.75 10.1426 4.09 10.1426 4.5V17.5C10.1426 17.91 9.80258 18.25 9.39258 18.25Z" fill="white"/>
<path d="M16.5635 21.2491C16.1535 21.2491 15.8135 20.9091 15.8135 20.4991V7.11914C15.8135 6.70914 16.1535 6.36914 16.5635 6.36914C16.9735 6.36914 17.3135 6.70914 17.3135 7.11914V20.4991C17.3135 20.9091 16.9735 21.2491 16.5635 21.2491Z" fill="white"/>
</svg>
