
<svg width="24" height="22" viewBox="0 0 24 22" fill="none" xmlns="http://www.w3.org/2000/svg">
<path d="M5.80518 1.02311C5.40861 1.09149 5.08042 1.30117 4.59724 1.7889C4.20524 2.19003 4.15965 2.25383 4.15965 2.40426C4.15965 2.62306 4.28728 2.75068 4.50608 2.75068C4.65649 2.75068 4.72031 2.7051 5.11232 2.32222C5.5727 1.8755 5.67299 1.80257 5.93736 1.74332C6.21541 1.6795 6.47067 1.77522 6.95385 2.12165L7.40511 2.44529L4.58812 5.26228C3.03833 6.81207 1.75746 8.06559 1.73922 8.04736C1.62071 7.91518 1.19223 7.30437 1.13298 7.18586C1.0327 6.98985 1.04182 6.6024 1.14665 6.37448C1.20136 6.25597 1.70275 5.72266 2.55971 4.87027C3.79955 3.63499 3.88616 3.53927 3.88616 3.38884C3.88616 3.13814 3.78131 3.02418 3.5534 3.02418C3.36196 3.02418 3.35284 3.02874 1.98537 4.40077C0.339845 6.05542 0.353519 6.03718 0.353519 6.78473C0.353519 7.25423 0.362636 7.30437 0.490267 7.54596C0.567757 7.68726 1.00535 8.3163 1.47029 8.94534C2.35914 10.1487 2.43663 10.2262 2.6919 10.1305C2.76027 10.1031 2.93348 9.96638 3.07934 9.82507L3.33917 9.56526L3.50782 9.73391L3.67648 9.90256L3.43945 10.1487C2.55059 11.0923 2.18594 12.4779 2.50045 13.736C2.60985 14.1782 2.97451 14.8983 3.27079 15.2539C3.74941 15.8237 4.51063 16.316 5.17614 16.4892C5.32656 16.5257 5.44963 16.5621 5.45419 16.5712C5.45874 16.5803 5.50888 16.7262 5.56359 16.904C5.61828 17.0772 5.74136 17.3553 5.83253 17.5148C6.06955 17.9114 6.61199 18.4128 7.02223 18.6133L7.35042 18.773V19.4794C7.35042 20.1312 7.35953 20.2042 7.45982 20.423C7.70597 20.9471 8.35779 21.1523 8.88199 20.8788C9.02329 20.8058 9.35604 20.4549 9.35604 20.382C9.35604 20.3637 9.45177 20.3455 9.57484 20.3455C9.77996 20.3455 9.79819 20.3546 9.94861 20.5597C10.172 20.8606 10.4272 20.9928 10.7873 20.9928C11.1885 20.9973 11.5395 20.7967 11.7081 20.4686C11.7674 20.3591 11.7992 20.3455 11.9998 20.3455C12.2004 20.3455 12.2323 20.3591 12.2915 20.4686C12.4602 20.7967 12.8112 20.9928 13.2124 20.9928C13.5725 20.9973 13.8277 20.8606 14.051 20.5597C14.2014 20.3591 14.2196 20.3455 14.4248 20.3455C14.6026 20.3455 14.6481 20.3637 14.6937 20.4504C15.0766 21.1934 16.1888 21.175 16.5398 20.423C16.6493 20.186 16.6493 20.1723 16.6493 18.7501V17.3096L16.9637 17.2322C17.2782 17.1501 17.7113 16.9222 17.9255 16.7262C18.003 16.6533 18.1215 16.6123 18.2902 16.5895C18.705 16.5439 19.0651 16.4345 19.5027 16.2157C19.9905 15.9787 20.0862 15.8875 20.0862 15.6687C20.0862 15.3452 19.7944 15.2175 19.4754 15.3998C19.2064 15.5547 18.901 15.696 18.7506 15.7417L18.6275 15.7735L18.7232 15.4181C18.8143 15.0625 18.8143 15.0625 19.0879 14.8847C20.0588 14.2557 20.4781 13.0843 20.1135 11.9994C20.0041 11.6757 19.6759 11.1561 19.4754 10.9874L19.3477 10.878L19.5756 10.6547L19.8035 10.4313L20.077 10.7276C20.4235 11.1014 20.7152 11.694 20.8246 12.2318C20.9568 12.9019 20.8382 13.6403 20.4964 14.2739C20.314 14.6112 20.2958 14.83 20.4417 14.9667C20.6833 15.1901 20.9477 15.0397 21.1983 14.5337C21.9231 13.0614 21.6724 11.3293 20.5601 10.1487L20.3231 9.90256L20.4918 9.73391L20.6605 9.56526L20.9203 9.82507C21.0661 9.96638 21.2394 10.1031 21.3078 10.1305C21.563 10.2262 21.6405 10.1487 22.5293 8.94534C22.9943 8.3163 23.4365 7.68271 23.5094 7.54139C23.6371 7.30437 23.6462 7.25423 23.6462 6.78473C23.6462 6.32434 23.6371 6.26509 23.5185 6.03261C23.327 5.66795 19.0742 1.40145 18.7004 1.20544C18.2401 0.959298 17.6521 0.936506 17.1871 1.14619C16.8999 1.27382 14.6345 2.96036 14.5615 3.09711C14.4658 3.27488 14.5297 3.41619 14.8396 3.73982L15.1177 4.03155L13.9599 5.18935L12.7975 6.35169H11.9998H11.2021L10.0398 5.18935L8.88199 4.03155L9.16004 3.73982C9.46999 3.41619 9.53381 3.27488 9.43809 3.09711C9.35148 2.93301 7.01766 1.22368 6.73505 1.11428C6.43877 1.00488 6.11058 0.972972 5.80518 1.02311ZM18.3358 1.8436C18.5773 1.96667 22.7846 6.20128 22.8712 6.4064C22.9623 6.62974 22.9578 7.00353 22.8667 7.18586C22.8074 7.30437 22.3789 7.91518 22.2605 8.04736C22.2421 8.06559 20.9613 6.81207 19.4116 5.26228L16.5945 2.44529L17.0458 2.1171C17.6429 1.69317 17.9255 1.63392 18.3358 1.8436ZM8.46719 3.23386C8.55379 3.29767 8.40793 3.4481 5.59094 6.26509L2.62353 9.2325L2.41384 8.96813L2.20416 8.69919L5.10321 5.79559L8.00681 2.89199L8.18914 3.02874C8.29397 3.10168 8.41704 3.19284 8.46719 3.23386ZM21.5857 8.96356L21.3762 9.2325L18.4224 6.27876C16.7951 4.65147 15.4641 3.31135 15.4641 3.29767C15.4687 3.28401 15.5826 3.18827 15.7284 3.08344L15.9883 2.89199L18.8919 5.79103L21.7954 8.69007L21.5857 8.96356ZM9.43809 5.63605L10.4956 6.69356L8.24839 8.94077L6.00573 11.1834L4.93456 10.1122L3.86337 9.04106L4.10039 8.80402L4.34198 8.567L4.85706 9.07296C5.4314 9.64274 5.64107 9.76581 6.01941 9.77038C6.60286 9.77038 7.03134 9.35101 7.03134 8.76756C7.03134 8.38011 6.90827 8.17499 6.33849 7.5961L5.82796 7.08101L6.11969 6.78473L6.41598 6.48844L6.96297 7.03543C7.55098 7.61889 7.71052 7.71917 8.07974 7.71917C8.4763 7.71917 8.84096 7.49581 8.99594 7.14939C9.10078 6.92603 9.1099 6.50212 9.01418 6.27421C8.97315 6.18304 8.70877 5.86852 8.41248 5.56768L7.87917 5.02981L8.10253 4.8019C8.2256 4.67426 8.33955 4.57398 8.35323 4.57398C8.3669 4.57398 8.85464 5.0526 9.43809 5.63605ZM15.8971 4.8019L16.1205 5.02981L15.5871 5.56768C15.2909 5.86852 15.0265 6.18304 14.9855 6.27421C14.8898 6.50212 14.8989 6.92603 15.0037 7.14939C15.1586 7.49581 15.5233 7.71917 15.9199 7.71917C16.2891 7.71917 16.4487 7.61889 17.0367 7.03543L17.5837 6.48844L17.88 6.78473L18.1717 7.08101L17.6657 7.59154C17.0823 8.18867 16.9683 8.37556 16.9683 8.75389C16.9728 9.35101 17.3877 9.77038 17.9802 9.77038C18.354 9.76581 18.5591 9.64274 19.138 9.07752L19.6622 8.567L19.8992 8.80402L20.1363 9.04106L19.0651 10.1122L17.9939 11.1834L15.7512 8.94077L13.5041 6.69356L14.5615 5.63605C15.145 5.0526 15.6328 4.57398 15.6464 4.57398C15.6601 4.57398 15.7741 4.67426 15.8971 4.8019ZM7.86549 6.07364C8.27574 6.48388 8.35323 6.58873 8.35323 6.70724C8.35323 6.86222 8.22104 6.98985 8.05695 6.98985C8.00224 6.98985 7.76522 6.78928 7.45526 6.47933L6.94018 5.96881L7.13162 5.7728C7.23646 5.6634 7.33674 5.5768 7.35042 5.5768C7.3641 5.5768 7.59657 5.80015 7.86549 6.07364ZM16.868 5.7728L17.0594 5.96881L16.5443 6.47933C16.2344 6.78928 15.9974 6.98985 15.9427 6.98985C15.7786 6.98985 15.6464 6.86222 15.6464 6.70724C15.6464 6.58873 15.7239 6.48388 16.1342 6.07364C16.403 5.80015 16.6356 5.5768 16.6493 5.5768C16.6629 5.5768 16.7631 5.6634 16.868 5.7728ZM15.1997 9.43762L17.5608 11.7988L17.447 12.1407C17.3877 12.3276 17.3147 12.4779 17.292 12.4688C17.2646 12.4643 16.3028 11.7806 15.1541 10.951C14.0101 10.1168 12.9388 9.37381 12.7748 9.29632C12.5012 9.16413 12.442 9.15502 11.9953 9.15502C11.5304 9.15502 11.5029 9.15957 11.1657 9.32822C10.8375 9.49232 10.6825 9.62908 8.89566 11.3794C7.83815 12.4141 6.96297 13.262 6.94473 13.2711C6.92651 13.2756 6.80343 12.9475 6.67579 12.5418L6.43877 11.7988L8.79994 9.43762L11.1566 7.08101H11.9998H12.8431L15.1997 9.43762ZM5.81429 8.12485C6.33849 8.65361 6.39319 8.76756 6.21086 8.94989C6.0422 9.11855 5.94648 9.06841 5.40405 8.53054L4.88896 8.02001L5.08042 7.82401C5.18525 7.71461 5.28554 7.628 5.29921 7.628C5.31288 7.628 5.54535 7.85136 5.81429 8.12485ZM18.9192 7.82401L19.1107 8.02001L18.5955 8.53054C18.2856 8.84049 18.0486 9.04106 17.9939 9.04106C17.8298 9.04106 17.6976 8.91342 17.6976 8.75844C17.6976 8.63993 17.7751 8.5351 18.1854 8.12485C18.4543 7.85136 18.6868 7.628 18.7004 7.628C18.7141 7.628 18.8143 7.71461 18.9192 7.82401ZM12.5285 9.98917C12.9161 10.1852 13.2306 10.682 13.2306 11.0923C13.2306 11.5709 12.8248 12.1133 12.3645 12.2501C12.0591 12.3412 11.9405 12.3412 11.6352 12.2501C11.1611 12.1088 10.7691 11.5709 10.7691 11.0649C10.7691 10.5909 11.1839 10.0621 11.6762 9.90256C11.8676 9.83875 12.3281 9.88889 12.5285 9.98917ZM4.44226 10.6683L4.65649 10.878L4.54254 10.9646C4.34654 11.1242 4.01378 11.6347 3.89983 11.9629C3.57619 12.9019 3.81323 13.9002 4.51975 14.5702C4.80692 14.8392 5.322 15.1491 5.48154 15.1491C5.51801 15.1491 5.52712 15.1855 5.50889 15.2494C5.49066 15.3086 5.46787 15.4545 5.44963 15.5731C5.42228 15.7827 5.41773 15.7919 5.30377 15.7644C5.08042 15.7098 4.62459 15.4681 4.34654 15.2585C3.42578 14.5702 2.95172 13.344 3.17507 12.2318C3.27991 11.7076 3.57619 11.1059 3.90895 10.7367C4.05025 10.5817 4.18244 10.4541 4.19611 10.4541C4.20979 10.4541 4.32375 10.5498 4.44226 10.6683ZM14.9307 11.7076L15.815 12.3458L15.6282 12.3959C15.0219 12.56 14.8031 12.7333 12.9115 14.5975L11.2933 16.1884L11.2659 15.7735C11.2112 15.026 10.956 14.4653 10.4318 13.9366C9.92582 13.4352 9.41074 13.1845 8.65863 13.0843L8.25751 13.0295L9.15093 12.1726C9.666 11.6712 10.0489 11.3384 10.058 11.3749C10.0671 11.4068 10.099 11.5253 10.1309 11.6393C10.2631 12.1407 10.6825 12.6375 11.1566 12.8517C12.3645 13.4079 13.7229 12.6785 13.9279 11.3658C13.9553 11.1925 13.9917 11.0512 14.0101 11.0558C14.0283 11.0649 14.4431 11.3566 14.9307 11.7076ZM6.00573 12.8563C6.16983 13.3668 6.30202 13.8089 6.30202 13.8409C6.30202 13.8773 6.25644 13.9411 6.2063 13.9913C6.1516 14.0369 6.04676 14.1645 5.97383 14.2694C5.9009 14.3787 5.80974 14.4653 5.76871 14.4653C5.61828 14.4653 5.14879 14.1645 4.93456 13.932C4.62459 13.5948 4.50608 13.2711 4.50608 12.7788C4.50152 12.437 4.51975 12.3549 4.64738 12.086C4.72487 11.9219 4.87529 11.6985 4.98013 11.5937L5.17158 11.4022L5.44052 11.6666L5.70489 11.9355L6.00573 12.8563ZM19.1153 11.694C19.6713 12.4005 19.6395 13.3122 19.0331 13.9686C18.8919 14.119 18.7643 14.2238 18.7461 14.2056C18.7277 14.1873 18.6777 14.0642 18.6321 13.9411C18.5318 13.6585 18.4133 13.4626 18.1672 13.1618L17.9802 12.9246L18.1352 12.4324C18.2811 11.9766 18.313 11.9173 18.55 11.6757C18.787 11.4341 18.8098 11.4205 18.901 11.4797C18.9556 11.5162 19.0515 11.6119 19.1153 11.694ZM17.023 13.2209C17.4104 13.4033 17.7113 13.7041 17.8936 14.0915C18.0259 14.3651 18.0395 14.438 18.0395 14.8072C18.035 15.3725 17.9164 15.6687 17.5426 16.038C16.9683 16.6123 16.2617 16.7491 15.5735 16.4299C14.4932 15.9239 14.1787 14.6158 14.9216 13.695C15.0995 13.4671 15.3319 13.3076 15.6783 13.1618C15.9017 13.0659 16.002 13.0523 16.3301 13.0614C16.6538 13.0751 16.7677 13.0979 17.023 13.2209ZM9.0552 13.9184C9.95773 14.2283 10.5412 15.0534 10.5412 16.0152C10.5412 17.0043 9.85745 17.8794 8.87743 18.1348C7.98857 18.3627 6.99944 17.9615 6.48891 17.1592C6.24277 16.7764 6.15616 16.4163 6.1744 15.9012C6.18806 15.4864 6.2063 15.4134 6.36128 15.0898C6.66212 14.4562 7.26837 13.964 7.9202 13.8318C8.23472 13.768 8.73156 13.8044 9.0552 13.9184ZM13.9142 15.6322C14.0146 15.9332 14.2151 16.2795 14.4066 16.4801L14.5251 16.6078L13.226 16.6032H11.9314L12.8431 15.7189L13.7547 14.8346L13.7867 15.0944C13.8049 15.2357 13.8642 15.4773 13.9142 15.6322ZM12.1822 18.4766V19.6162H11.9998H11.8175V18.4766V17.3371H11.9998H12.1822V18.4766ZM13.5041 18.7C13.5041 19.9444 13.495 20.072 13.422 20.1632C13.3217 20.2862 13.1257 20.2953 13.0027 20.186C12.9161 20.1085 12.9115 20.0355 12.9115 18.7182V17.3371H13.2078H13.5041V18.7ZM14.5524 18.4766V19.6162H14.3929H14.2334V18.4766V17.3371H14.3929H14.5524V18.4766ZM15.9199 18.7C15.9199 19.9306 15.9108 20.072 15.8425 20.154C15.7011 20.3182 15.5689 20.3227 15.4185 20.1678L15.2818 20.0355V18.6863V17.3371H15.6008H15.9199V18.7ZM11.0016 20.1769C10.8922 20.2862 10.7007 20.2908 10.5868 20.186C10.5002 20.1085 10.4956 20.0401 10.4956 19.0647V18.0299L10.7828 17.7565L11.0654 17.4784L11.0791 18.7866C11.0882 20.0219 11.0836 20.0948 11.0016 20.1769ZM9.76628 19.092V19.6162H9.60674H9.4472V19.1695V18.7228L9.59763 18.6453C9.67513 18.6088 9.74806 18.5724 9.75717 18.5724C9.76172 18.5678 9.76628 18.8048 9.76628 19.092ZM8.71789 19.4839V20.0355L8.58115 20.1678C8.43072 20.3227 8.29853 20.3182 8.16178 20.154C8.09341 20.0765 8.07974 19.9717 8.07974 19.4976V18.9325H8.39882H8.71789V19.4839Z" fill="#5E5E5E" stroke="#C2C2C2" stroke-width="0.1"/>
<path d="M15.7786 13.9089C15.0584 14.2827 15.0629 15.3721 15.7832 15.7413C16.2208 15.9647 16.6811 15.8963 17.0185 15.559C17.6885 14.889 17.2281 13.7812 16.2846 13.7812C16.084 13.7812 15.9609 13.8132 15.7786 13.9089ZM16.5125 14.6018C16.5627 14.6519 16.6036 14.7431 16.6036 14.807C16.6036 14.9482 16.4168 15.1488 16.2846 15.1488C16.1569 15.1488 15.9654 14.9528 15.9654 14.8252C15.9654 14.5653 16.3255 14.4149 16.5125 14.6018Z" fill="#5E5E5E" stroke="#C2C2C2" stroke-width="0.1"/>
<path d="M7.94298 15.0174C7.30939 15.2817 7.09972 16.1387 7.54186 16.6766C7.74698 16.9227 8.00224 17.0367 8.35322 17.0367C8.70877 17.0367 8.95948 16.9227 9.1646 16.6721C9.54748 16.2071 9.43809 15.4459 8.93668 15.1131C8.77715 15.0083 8.69054 14.99 8.40336 14.9809C8.21192 14.9718 8.0068 14.99 7.94298 15.0174ZM8.58114 15.7877C8.75435 15.961 8.64951 16.2527 8.38969 16.3165C8.29397 16.3347 8.23927 16.3165 8.15266 16.2253C7.93843 16.0157 8.05694 15.6965 8.35322 15.6965C8.43072 15.6965 8.531 15.7376 8.58114 15.7877Z" fill="#5E5E5E" stroke="#C2C2C2" stroke-width="0.1"/>
</svg>
