
<svg width="20" height="20" viewBox="0 0 20 20" fill="none" xmlns="http://www.w3.org/2000/svg">
<path d="M18.5432 4.18854L18.5579 4.17065L14.3474 0.760127L13.021 2.39591L15.1969 4.15802C14.657 4.48601 14.2285 4.9688 13.9668 5.54363C13.7051 6.11846 13.6224 6.75873 13.7295 7.38118C13.8874 8.32748 14.5389 9.14539 15.3822 9.60328C16.3242 10.1159 17.1505 10.0685 17.8852 9.80749L17.8694 16.3149C17.8708 16.4892 17.8286 16.661 17.7466 16.8149C17.6649 16.9687 17.5459 17.0999 17.4006 17.1961C17.2554 17.2925 17.0884 17.3511 16.9148 17.3668C16.7411 17.3823 16.5664 17.3543 16.4063 17.2853C16.2809 17.2318 16.1672 17.1542 16.0716 17.0569C15.9743 16.9595 15.8971 16.8437 15.8445 16.7164C15.7921 16.5891 15.765 16.4526 15.7653 16.3149L15.7895 14.2096C15.7906 13.7953 15.7095 13.3848 15.551 13.002C15.3926 12.6191 15.1598 12.2715 14.8663 11.9791C14.5731 11.6852 14.2247 11.452 13.8413 11.2929C13.4578 11.1337 13.0467 11.0518 12.6316 11.0517H11.5789V2.63065C11.5789 2.0723 11.3571 1.53682 10.9623 1.14201C10.5675 0.747194 10.032 0.525391 9.47367 0.525391H2.10527C1.54691 0.525391 1.01143 0.747194 0.616617 1.14201C0.221805 1.53682 0 2.0723 0 2.63065V17.3676C0 17.9258 0.221805 18.4613 0.616617 18.8561C1.01143 19.251 1.54691 19.4727 2.10527 19.4727H9.47367C10.032 19.4727 10.5675 19.251 10.9623 18.8561C11.3571 18.4613 11.5789 17.9258 11.5789 17.3676V13.157H12.6316C12.7747 13.157 12.9126 13.1854 13.0431 13.2391C13.2937 13.3487 13.4934 13.5492 13.6021 13.8001C13.6567 13.9297 13.6846 14.069 13.6842 14.2096L13.6589 16.3149C13.6589 16.7423 13.7421 17.1558 13.9074 17.5443C14.0663 17.9222 14.2947 18.2602 14.5821 18.5453C14.8742 18.8406 15.2224 19.0748 15.606 19.234C15.9898 19.3932 16.4014 19.4744 16.8168 19.4727C17.2442 19.4727 17.6568 19.3907 18.0464 19.2244C18.4231 19.0665 18.7621 18.838 19.0473 18.5496C19.342 18.257 19.5758 17.9088 19.7349 17.5252C19.8941 17.1415 19.9757 16.7301 19.9748 16.3149L20 6.84118C19.9989 6.31236 19.865 5.79228 19.6105 5.32877C19.3559 4.86525 18.9888 4.47315 18.5432 4.18854ZM9.47367 5.78855H2.10527V2.63065H9.47367V5.78855ZM16.8422 7.8938C16.563 7.8938 16.2951 7.78291 16.0977 7.58549C15.9004 7.38809 15.7895 7.12035 15.7895 6.84118C15.7895 6.562 15.9004 6.29425 16.0977 6.09685C16.2951 5.89945 16.563 5.78855 16.8422 5.78855C17.1212 5.78855 17.389 5.89945 17.5864 6.09685C17.7839 6.29425 17.8947 6.562 17.8947 6.84118C17.8947 7.12035 17.7839 7.38809 17.5864 7.58549C17.389 7.78291 17.1212 7.8938 16.8422 7.8938Z" fill="#727272"/>
</svg>
