
<svg width="20" height="20" viewBox="0 0 20 20" fill="none" xmlns="http://www.w3.org/2000/svg">
<g clip-path="url(#clip0_2671_73567)">
<path d="M9.07096 2.50366C7.58183 2.68457 6.16943 3.30745 4.99291 4.3021L6.01119 5.39443C6.17529 5.58313 6.26464 5.83272 6.26039 6.0906C6.25615 6.34849 6.15864 6.59455 5.98841 6.77693C5.81819 6.95932 5.58855 7.06379 5.34785 7.06833C5.10715 7.07289 4.8742 6.97716 4.69808 6.80132L3.67485 5.70633C2.80521 6.87506 2.23939 8.26932 2.03472 9.74783H4.11585C4.36227 9.74783 4.59859 9.85272 4.77281 10.0394C4.94705 10.2261 5.04493 10.4793 5.04493 10.7433C5.04493 11.0073 4.94705 11.2605 4.77281 11.4472C4.59859 11.6338 4.36227 11.7387 4.11585 11.7387H1.97897C2.17184 13.8688 3.08049 15.8513 4.5358 17.3172C4.71133 17.4988 4.81311 17.7472 4.81913 18.0086C4.82516 18.2699 4.73496 18.5233 4.56801 18.7141C4.40108 18.9048 4.1708 19.0175 3.92696 19.0278C3.68311 19.0382 3.44527 18.9452 3.26483 18.7692C1.35711 16.8539 0.0898438 14.0296 0.0898438 10.9994C0.0898438 5.17012 4.53332 0.457031 10 0.457031C15.4668 0.457031 19.9103 5.16879 19.9103 10.9994C19.9077 12.4542 19.6291 13.8933 19.0912 15.2289C18.5532 16.5648 17.7672 17.7692 16.7811 18.7692C16.6007 18.9452 16.3628 19.0382 16.1189 19.0278C15.8751 19.0175 15.6448 18.9048 15.4779 18.7141C15.3109 18.5233 15.2208 18.2699 15.2268 18.0086C15.2328 17.7472 15.3345 17.4988 15.5101 17.3172C16.9553 15.8489 17.8489 13.8645 18.0223 11.7387H15.8843C15.6379 11.7387 15.4015 11.6338 15.2272 11.4472C15.0531 11.2605 14.9551 11.0073 14.9551 10.7433C14.9551 10.4793 15.0531 10.2261 15.2272 10.0394C15.4015 9.85272 15.6379 9.74783 15.8843 9.74783H17.9653C17.4401 5.94392 14.5551 2.94565 10.9291 2.50366V4.10699C10.9291 4.371 10.8312 4.62419 10.657 4.81087C10.4828 4.99756 10.2464 5.10243 10 5.10243C9.75363 5.10243 9.51731 4.99756 9.34308 4.81087C9.16884 4.62419 9.07096 4.371 9.07096 4.10699V2.50366ZM14.2725 5.5099C14.3852 5.41412 14.5253 5.36326 14.6691 5.36605C14.8128 5.36885 14.9511 5.42512 15.0604 5.52523C15.1696 5.62533 15.2429 5.76305 15.2679 5.91475C15.2927 6.06643 15.2676 6.22269 15.1967 6.35669L15.0604 6.61683C14.5623 7.55933 14.0609 8.49992 13.5565 9.43859C13.1533 10.1897 12.7445 10.9374 12.3302 11.6816C12.1749 11.9616 12.0163 12.2395 11.8545 12.5152C11.7306 12.7235 11.6092 12.9213 11.52 13.0328C11.2 13.4344 10.7442 13.6834 10.2529 13.725C9.76151 13.7666 9.27487 13.5973 8.9 13.2544C8.52513 12.9116 8.29275 12.4232 8.25395 11.8968C8.21515 11.3703 8.37312 10.8489 8.69313 10.4473C8.78232 10.3358 8.9446 10.1752 9.11803 10.012C9.30384 9.83543 9.54292 9.61909 9.81173 9.3762C10.3518 8.89307 11.0282 8.30112 11.6872 7.7304C12.4733 7.04912 13.262 6.37132 14.0533 5.69705L14.2725 5.5099Z" fill="#828282"/>
</g>
<defs>
<clipPath id="clip0_2671_73567">
<rect width="20" height="20" fill="white"/>
</clipPath>
</defs>
</svg>
