
<svg width="19" height="18" viewBox="0 0 19 18" fill="none" xmlns="http://www.w3.org/2000/svg">
<g clip-path="url(#clip0_2671_73581)">
<path d="M9.49975 0.65625C5.09713 0.65625 1.52832 4.28607 1.52832 8.76394C1.52832 13.2418 5.09713 16.8716 9.49975 16.8716C13.9024 16.8716 17.4712 13.2418 17.4712 8.76394C17.4712 4.28607 13.9024 0.65625 9.49975 0.65625ZM12.6883 9.57471L15.8275 9.57552C15.6499 11.0043 15.01 12.3323 14.0088 13.3506C13.0075 14.3688 11.7016 15.0194 10.2969 15.1998V12.007C10.9311 12.007 11.5394 11.7508 11.9879 11.2946C12.4364 10.8385 12.6883 10.2198 12.6883 9.57471ZM3.17203 9.57552L6.31118 9.57471C6.31118 10.2198 6.56312 10.8385 7.01161 11.2946C7.46009 11.7508 8.06836 12.007 8.7026 12.007L8.70181 15.1998C7.29719 15.0193 5.99152 14.3685 4.99041 13.3504C3.98929 12.3321 3.34958 11.0042 3.17203 9.57552ZM9.49975 2.27779C11.0531 2.27782 12.553 2.85439 13.718 3.89933C14.8831 4.94427 15.6332 6.38571 15.8275 7.95317H12.6883C12.6883 7.73814 12.6043 7.53193 12.4548 7.37987C12.3053 7.22782 12.1026 7.14241 11.8912 7.14241H7.10832C6.89691 7.14241 6.69415 7.22782 6.54465 7.37987C6.39516 7.53193 6.31118 7.73814 6.31118 7.95317H3.17203C3.36636 6.38571 4.11644 4.94427 5.28147 3.89933C6.44651 2.85439 7.94642 2.27782 9.49975 2.27779Z" fill="#727272"/>
</g>
<defs>
<clipPath id="clip0_2671_73581">
<rect width="18" height="17" fill="white" transform="translate(0.5 0.5)"/>
</clipPath>
</defs>
</svg>
