
<svg width="20" height="20" viewBox="0 0 20 20" fill="none" xmlns="http://www.w3.org/2000/svg">
<path d="M3.99998 15.9204C3.99998 15.9204 0 7.96023 0 3.98011C0 -3.55849e-07 2.66665 0 2.66665 0H3.99998C3.99998 0 5.3333 -8.89624e-08 5.3333 0.995032C5.3333 1.99006 3.99998 1.99006 3.99998 3.98011C3.99998 5.97016 7.99997 7.96023 7.99997 10.9453C7.99997 13.9304 3.99998 15.9204 3.99998 15.9204ZM10.6666 14.9254C9.33328 14.9254 5.3333 17.413 5.3333 17.413C4.9333 17.6119 5.06664 17.9104 5.3333 18.209C5.3333 18.209 6.66663 20 9.33328 20H17.3332C18.8 20 20 19.1045 20 18.01V17.0149C20 15.9204 18.8 15.0249 17.3332 15.0249H10.6666V14.9254Z" fill="#727272"/>
</svg>
