
<svg width="25" height="25" viewBox="0 0 25 25" fill="none" xmlns="http://www.w3.org/2000/svg">
<path d="M17.5 21.75H7.5C3.85 21.75 1.75 19.65 1.75 16V9C1.75 5.35 3.85 3.25 7.5 3.25H17.5C21.15 3.25 23.25 5.35 23.25 9V16C23.25 19.65 21.15 21.75 17.5 21.75ZM7.5 4.75C4.64 4.75 3.25 6.14 3.25 9V16C3.25 18.86 4.64 20.25 7.5 20.25H17.5C20.36 20.25 21.75 18.86 21.75 16V9C21.75 6.14 20.36 4.75 17.5 4.75H7.5Z" fill="white"/>
<path d="M12.4998 13.37C11.6598 13.37 10.8098 13.11 10.1598 12.58L7.02978 10.08C6.70978 9.81997 6.64978 9.34997 6.90978 9.02997C7.16978 8.70997 7.63978 8.64997 7.95978 8.90997L11.0898 11.41C11.8498 12.02 13.1398 12.02 13.8998 11.41L17.0298 8.90997C17.3498 8.64997 17.8298 8.69997 18.0798 9.02997C18.3398 9.34997 18.2898 9.82997 17.9598 10.08L14.8298 12.58C14.1898 13.11 13.3398 13.37 12.4998 13.37Z" fill="white"/>
</svg>
