
<svg width="18" height="19" viewBox="0 0 18 19" fill="none" xmlns="http://www.w3.org/2000/svg">
<path d="M4.30502 12.5C4.38752 12.1325 4.23752 11.6075 3.97502 11.345L2.15252 9.5225C1.58252 8.9525 1.35752 8.345 1.52252 7.82C1.69502 7.295 2.22752 6.935 3.02252 6.8L5.36252 6.41C5.70002 6.35 6.11252 6.05 6.27002 5.7425L7.56002 3.155C7.93502 2.4125 8.44502 2 9.00002 2C9.55502 2 10.065 2.4125 10.44 3.155L11.73 5.7425C11.8275 5.9375 12.03 6.125 12.2475 6.2525L4.17002 14.33C4.06502 14.435 3.88502 14.3375 3.91502 14.1875L4.30502 12.5Z" fill="#EDB628"/>
<path d="M14.0251 11.3444C13.7551 11.6144 13.6051 12.1319 13.6951 12.4994L14.2126 14.7569C14.4301 15.6944 14.2951 16.3994 13.8301 16.7369C13.6426 16.8719 13.4176 16.9394 13.1551 16.9394C12.7726 16.9394 12.3226 16.7969 11.8276 16.5044L9.6301 15.1994C9.2851 14.9969 8.7151 14.9969 8.3701 15.1994L6.1726 16.5044C5.3401 16.9919 4.6276 17.0744 4.1701 16.7369C3.9976 16.6094 3.8701 16.4369 3.7876 16.2119L12.9076 7.09193C13.2526 6.74693 13.7401 6.58943 14.2126 6.67193L14.9701 6.79943C15.7651 6.93443 16.2976 7.29444 16.4701 7.81944C16.6351 8.34443 16.4101 8.95193 15.8401 9.52193L14.0251 11.3444Z" fill="#EDB628"/>
</svg>
