
<svg width="137" height="24" viewBox="0 0 137 24" fill="none" xmlns="http://www.w3.org/2000/svg">
<path d="M126.23 3.51063L127.99 7.03063C128.23 7.52063 128.87 7.99062 129.41 8.08063L132.6 8.61062C134.64 8.95062 135.12 10.4306 133.65 11.8906L131.17 14.3706C130.75 14.7906 130.52 15.6006 130.65 16.1806L131.36 19.2506C131.92 21.6806 130.63 22.6206 128.48 21.3506L125.49 19.5806C124.95 19.2606 124.06 19.2606 123.51 19.5806L120.52 21.3506C118.38 22.6206 117.08 21.6706 117.64 19.2506L118.35 16.1806C118.48 15.6006 118.25 14.7906 117.83 14.3706L115.35 11.8906C113.89 10.4306 114.36 8.95062 116.4 8.61062L119.59 8.08063C120.12 7.99062 120.76 7.52063 121 7.03063L122.76 3.51063C123.72 1.60063 125.28 1.60063 126.23 3.51063Z" fill="#D7D7D7"/>
<path d="M98.2299 3.51063L99.9899 7.03063C100.23 7.52063 100.87 7.99062 101.41 8.08063L104.6 8.61062C106.64 8.95062 107.12 10.4306 105.65 11.8906L103.17 14.3706C102.75 14.7906 102.52 15.6006 102.65 16.1806L103.36 19.2506C103.92 21.6806 102.63 22.6206 100.48 21.3506L97.4899 19.5806C96.9499 19.2606 96.0599 19.2606 95.5099 19.5806L92.5199 21.3506C90.3799 22.6206 89.0799 21.6706 89.6399 19.2506L90.3499 16.1806C90.4799 15.6006 90.2499 14.7906 89.8299 14.3706L87.3499 11.8906C85.8899 10.4306 86.3599 8.95062 88.3999 8.61062L91.5899 8.08063C92.1199 7.99062 92.7599 7.52063 92.9999 7.03063L94.7599 3.51063C95.7199 1.60063 97.2799 1.60063 98.2299 3.51063Z" fill="#FDB713"/>
<path d="M70.2299 3.51063L71.9899 7.03063C72.2299 7.52063 72.8699 7.99062 73.4099 8.08063L76.5999 8.61062C78.6399 8.95062 79.1199 10.4306 77.6499 11.8906L75.1699 14.3706C74.7499 14.7906 74.5199 15.6006 74.6499 16.1806L75.3599 19.2506C75.9199 21.6806 74.6299 22.6206 72.4799 21.3506L69.4899 19.5806C68.9499 19.2606 68.0599 19.2606 67.5099 19.5806L64.5199 21.3506C62.3799 22.6206 61.0799 21.6706 61.6399 19.2506L62.3499 16.1806C62.4799 15.6006 62.2499 14.7906 61.8299 14.3706L59.3499 11.8906C57.8899 10.4306 58.3599 8.95062 60.3999 8.61062L63.5899 8.08063C64.1199 7.99062 64.7599 7.52063 64.9999 7.03063L66.7599 3.51063C67.7199 1.60063 69.2799 1.60063 70.2299 3.51063Z" fill="#FDB713"/>
<path d="M42.2299 3.51063L43.9899 7.03063C44.2299 7.52063 44.8699 7.99062 45.4099 8.08063L48.5999 8.61062C50.6399 8.95062 51.1199 10.4306 49.6499 11.8906L47.1699 14.3706C46.7499 14.7906 46.5199 15.6006 46.6499 16.1806L47.3599 19.2506C47.9199 21.6806 46.6299 22.6206 44.4799 21.3506L41.4899 19.5806C40.9499 19.2606 40.0599 19.2606 39.5099 19.5806L36.5199 21.3506C34.3799 22.6206 33.0799 21.6706 33.6399 19.2506L34.3499 16.1806C34.4799 15.6006 34.2499 14.7906 33.8299 14.3706L31.3499 11.8906C29.8899 10.4306 30.3599 8.95062 32.3999 8.61062L35.5899 8.08063C36.1199 7.99062 36.7599 7.52063 36.9999 7.03063L38.7599 3.51063C39.7199 1.60063 41.2799 1.60063 42.2299 3.51063Z" fill="#FDB713"/>
<path d="M14.2299 3.51063L15.9899 7.03063C16.2299 7.52063 16.8699 7.99062 17.4099 8.08063L20.5999 8.61062C22.6399 8.95062 23.1199 10.4306 21.6499 11.8906L19.1699 14.3706C18.7499 14.7906 18.5199 15.6006 18.6499 16.1806L19.3599 19.2506C19.9199 21.6806 18.6299 22.6206 16.4799 21.3506L13.4899 19.5806C12.9499 19.2606 12.0599 19.2606 11.5099 19.5806L8.51991 21.3506C6.37991 22.6206 5.07991 21.6706 5.63991 19.2506L6.34991 16.1806C6.47991 15.6006 6.24991 14.7906 5.82991 14.3706L3.34991 11.8906C1.88991 10.4306 2.35991 8.95062 4.39991 8.61062L7.58991 8.08063C8.11991 7.99062 8.75991 7.52063 8.99991 7.03063L10.7599 3.51063C11.7199 1.60063 13.2799 1.60063 14.2299 3.51063Z" fill="#FDB713"/>
</svg>
