
<svg width="120" height="24" viewBox="0 0 120 24" fill="none" xmlns="http://www.w3.org/2000/svg">
<path d="M12 0L14.6942 8.2918H23.4127L16.3593 13.4164L19.0534 21.7082L12 16.5836L4.94658 21.7082L7.64074 13.4164L0.587322 8.2918H9.30583L12 0Z" fill="#F4B740"/>
<path d="M36 0L38.6942 8.2918H47.4127L40.3593 13.4164L43.0534 21.7082L36 16.5836L28.9466 21.7082L31.6407 13.4164L24.5873 8.2918H33.3058L36 0Z" fill="#F4B740"/>
<path d="M60 0L62.6942 8.2918H71.4127L64.3593 13.4164L67.0534 21.7082L60 16.5836L52.9466 21.7082L55.6407 13.4164L48.5873 8.2918H57.3058L60 0Z" fill="#F4B740"/>
<path d="M84 0L86.6942 8.2918H95.4127L88.3593 13.4164L91.0534 21.7082L84 16.5836L76.9466 21.7082L79.6407 13.4164L72.5873 8.2918H81.3058L84 0Z" fill="#F4B740"/>
<path d="M108 1.61804L110.219 8.4463L110.331 8.7918H110.694H117.874L112.065 13.0119L111.771 13.2254L111.884 13.5709L114.102 20.3992L108.294 16.1791L108 15.9656L107.706 16.1791L101.898 20.3992L104.116 13.5709L104.229 13.2254L103.935 13.0119L98.1262 8.7918H105.306H105.669L105.781 8.4463L108 1.61804Z" stroke="#F4B740"/>
</svg>
