
<svg width="20" height="20" viewBox="0 0 20 20" fill="none" xmlns="http://www.w3.org/2000/svg">
<path d="M12.5001 18.4577H7.50008C5.29498 18.4577 3.84042 17.9847 2.92759 17.0718C2.01476 16.159 1.54175 14.7045 1.54175 12.4993V7.49935C1.54175 5.29424 2.01476 3.83969 2.92759 2.92686C3.84042 2.01403 5.29498 1.54102 7.50008 1.54102H12.5001C14.7052 1.54102 16.1597 2.01403 17.0726 2.92686C17.9854 3.83969 18.4584 5.29424 18.4584 7.49935V12.4993C18.4584 14.7045 17.9854 16.159 17.0726 17.0718C16.1597 17.9847 14.7052 18.4577 12.5001 18.4577ZM7.50008 1.79102C5.54397 1.79102 4.06899 2.13375 3.10174 3.101C2.13449 4.06825 1.79175 5.54324 1.79175 7.49935V12.4993C1.79175 14.4555 2.13449 15.9304 3.10174 16.8977C4.06899 17.8649 5.54397 18.2077 7.50008 18.2077H12.5001C14.4562 18.2077 15.9312 17.8649 16.8984 16.8977C17.8657 15.9304 18.2084 14.4555 18.2084 12.4993V7.49935C18.2084 5.54324 17.8657 4.06825 16.8984 3.101C15.9312 2.13375 14.4562 1.79102 12.5001 1.79102H7.50008Z" fill="#292D32" stroke="#494949"/>
<path d="M8.46315 11.8279L8.8167 12.1815L9.17025 11.8279L13.4536 7.54457C13.4751 7.52304 13.5058 7.50977 13.5417 7.50977C13.5776 7.50977 13.6083 7.52304 13.6298 7.54457C13.6513 7.5661 13.6646 7.59683 13.6646 7.63268C13.6646 7.66853 13.6513 7.69927 13.6298 7.72079L8.90481 12.4458C8.88084 12.4698 8.84925 12.4827 8.8167 12.4827C8.78415 12.4827 8.75256 12.4698 8.72859 12.4458L6.37025 10.0875C6.34873 10.0659 6.33545 10.0352 6.33545 9.99935C6.33545 9.9635 6.34873 9.93276 6.37025 9.91124C6.39178 9.88971 6.42251 9.87643 6.45837 9.87643C6.49422 9.87643 6.52495 9.88971 6.54648 9.91124L8.46315 11.8279Z" fill="#292D32" stroke="#494949"/>
</svg>
