
<svg width="18" height="18" viewBox="0 0 18 18" fill="none" xmlns="http://www.w3.org/2000/svg">
<path d="M5.66667 3.79102C5.325 3.79102 5.04167 3.50768 5.04167 3.16602V0.666016C5.04167 0.324349 5.325 0.0410156 5.66667 0.0410156C6.00833 0.0410156 6.29167 0.324349 6.29167 0.666016V3.16602C6.29167 3.50768 6.00833 3.79102 5.66667 3.79102Z" fill="#727272"/>
<path d="M12.3333 3.79102C11.9917 3.79102 11.7083 3.50768 11.7083 3.16602V0.666016C11.7083 0.324349 11.9917 0.0410156 12.3333 0.0410156C12.675 0.0410156 12.9583 0.324349 12.9583 0.666016V3.16602C12.9583 3.50768 12.675 3.79102 12.3333 3.79102Z" fill="#727272"/>
<path d="M6.08333 11.0827C5.975 11.0827 5.86667 11.0577 5.76667 11.016C5.65833 10.9744 5.575 10.916 5.49167 10.841C5.34167 10.6827 5.25 10.4744 5.25 10.2494C5.25 10.141 5.275 10.0327 5.31667 9.93268C5.35833 9.83268 5.41667 9.74103 5.49167 9.6577C5.575 9.5827 5.65833 9.52434 5.76667 9.48268C6.06667 9.35768 6.44167 9.42436 6.675 9.6577C6.825 9.81603 6.91667 10.0327 6.91667 10.2494C6.91667 10.2994 6.90833 10.3577 6.9 10.416C6.89167 10.466 6.875 10.516 6.85 10.566C6.83333 10.616 6.80833 10.666 6.775 10.716C6.75 10.7577 6.70833 10.7993 6.675 10.841C6.51667 10.991 6.3 11.0827 6.08333 11.0827Z" fill="#727272"/>
<path d="M9 11.0827C8.89167 11.0827 8.78333 11.0577 8.68333 11.016C8.575 10.9744 8.49167 10.916 8.40833 10.841C8.25833 10.6827 8.16667 10.4743 8.16667 10.2493C8.16667 10.141 8.19167 10.0327 8.23333 9.93267C8.275 9.83267 8.33333 9.74102 8.40833 9.65769C8.49167 9.58269 8.575 9.52433 8.68333 9.48267C8.98333 9.34933 9.35833 9.42435 9.59167 9.65769C9.74167 9.81602 9.83333 10.0327 9.83333 10.2493C9.83333 10.2993 9.825 10.3577 9.81667 10.416C9.80833 10.466 9.79167 10.516 9.76666 10.566C9.75 10.616 9.725 10.666 9.69167 10.716C9.66667 10.7577 9.625 10.7993 9.59167 10.841C9.43333 10.991 9.21667 11.0827 9 11.0827Z" fill="#727272"/>
<path d="M11.9167 11.0827C11.8083 11.0827 11.7 11.0577 11.6 11.016C11.4917 10.9744 11.4083 10.916 11.325 10.841C11.2917 10.7993 11.2583 10.7577 11.225 10.716C11.1917 10.666 11.1667 10.616 11.15 10.566C11.125 10.516 11.1083 10.466 11.1 10.416C11.0917 10.3577 11.0833 10.2993 11.0833 10.2493C11.0833 10.0327 11.175 9.81602 11.325 9.65769C11.4083 9.58269 11.4917 9.52433 11.6 9.48267C11.9083 9.34933 12.275 9.42435 12.5083 9.65769C12.6583 9.81602 12.75 10.0327 12.75 10.2493C12.75 10.2993 12.7417 10.3577 12.7333 10.416C12.725 10.466 12.7083 10.516 12.6833 10.566C12.6667 10.616 12.6417 10.666 12.6083 10.716C12.5833 10.7577 12.5417 10.7993 12.5083 10.841C12.35 10.991 12.1333 11.0827 11.9167 11.0827Z" fill="#727272"/>
<path d="M6.08333 13.9994C5.975 13.9994 5.86667 13.9744 5.76667 13.9327C5.66667 13.891 5.575 13.8327 5.49167 13.7577C5.34167 13.5993 5.25 13.3827 5.25 13.166C5.25 13.0577 5.275 12.9493 5.31667 12.8493C5.35833 12.741 5.41667 12.6494 5.49167 12.5744C5.8 12.266 6.36667 12.266 6.675 12.5744C6.825 12.7327 6.91667 12.9494 6.91667 13.166C6.91667 13.3827 6.825 13.5993 6.675 13.7577C6.51667 13.9077 6.3 13.9994 6.08333 13.9994Z" fill="#727272"/>
<path d="M9 13.9994C8.78333 13.9994 8.56667 13.9077 8.40833 13.7577C8.25833 13.5993 8.16667 13.3827 8.16667 13.166C8.16667 13.0577 8.19167 12.9493 8.23333 12.8493C8.275 12.741 8.33333 12.6494 8.40833 12.5744C8.71667 12.266 9.28333 12.266 9.59167 12.5744C9.66667 12.6494 9.725 12.741 9.76666 12.8493C9.80833 12.9493 9.83333 13.0577 9.83333 13.166C9.83333 13.3827 9.74167 13.5993 9.59167 13.7577C9.43333 13.9077 9.21667 13.9994 9 13.9994Z" fill="#727272"/>
<path d="M11.9167 13.9994C11.7 13.9994 11.4833 13.9077 11.325 13.7577C11.25 13.6827 11.1917 13.591 11.15 13.4827C11.1083 13.3827 11.0833 13.2744 11.0833 13.166C11.0833 13.0577 11.1083 12.9494 11.15 12.8494C11.1917 12.741 11.25 12.6494 11.325 12.5744C11.5167 12.3827 11.8083 12.291 12.075 12.3494C12.1333 12.3577 12.1833 12.3744 12.2333 12.3994C12.2833 12.416 12.3333 12.4411 12.3833 12.4744C12.425 12.4994 12.4667 12.5411 12.5083 12.5744C12.6583 12.7327 12.75 12.9494 12.75 13.166C12.75 13.3827 12.6583 13.5994 12.5083 13.7577C12.35 13.9077 12.1333 13.9994 11.9167 13.9994Z" fill="#727272"/>
<path d="M16.0833 7.19932H1.91667C1.575 7.19932 1.29167 6.91599 1.29167 6.57432C1.29167 6.23265 1.575 5.94932 1.91667 5.94932H16.0833C16.425 5.94932 16.7083 6.23265 16.7083 6.57432C16.7083 6.91599 16.425 7.19932 16.0833 7.19932Z" fill="#727272"/>
<path d="M12.3333 17.9577H5.66667C2.625 17.9577 0.875 16.2077 0.875 13.166V6.08268C0.875 3.04102 2.625 1.29102 5.66667 1.29102H12.3333C15.375 1.29102 17.125 3.04102 17.125 6.08268V13.166C17.125 16.2077 15.375 17.9577 12.3333 17.9577ZM5.66667 2.54102C3.28333 2.54102 2.125 3.69935 2.125 6.08268V13.166C2.125 15.5493 3.28333 16.7077 5.66667 16.7077H12.3333C14.7167 16.7077 15.875 15.5493 15.875 13.166V6.08268C15.875 3.69935 14.7167 2.54102 12.3333 2.54102H5.66667Z" fill="#727272"/>
</svg>
